<?xml version="1.0" standalone="no"?>
<!DOCTYPE svg PUBLIC "-//W3C//DTD SVG 20010904//EN"
 "http://www.w3.org/TR/2001/REC-SVG-20010904/DTD/svg10.dtd">
<svg version="1.0" xmlns="http://www.w3.org/2000/svg"
 width="32.000000pt" height="32.000000pt" viewBox="0 0 32.000000 32.000000"
 preserveAspectRatio="xMidYMid meet">
<metadata>
Created by potrace 1.16, written by Peter Selinger 2001-2019
</metadata>
<g transform="translate(0.000000,32.000000) scale(0.006250,-0.006250)"
fill="#7e7e7e" stroke="none">
<path d="M1212 3890 c-124 -18 -254 -118 -310 -237 -25 -54 -27 -70 -30 -211
-4 -170 1 -188 57 -212 44 -18 95 -5 125 31 25 29 26 37 26 143 0 62 3 115 6
119 6 5 1133 -953 1133 -963 0 -10 -1127 -968 -1133 -963 -3 4 -6 57 -6 119 0
106 -1 114 -26 143 -30 36 -81 49 -125 31 -56 -24 -61 -42 -57 -212 3 -141 5
-157 30 -211 59 -125 186 -219 324 -238 43 -6 693 -8 1689 -7 l1620 3 58 22
c115 43 203 130 250 243 l22 55 0 1015 0 1015 -22 55 c-47 113 -135 200 -250
243 l-58 22 -1635 1 c-899 1 -1659 -2 -1688 -6z m3262 -219 c-77 -70 -1548
-1322 -1563 -1330 -34 -19 -78 -13 -113 16 -78 65 -1495 1278 -1518 1299 l-25
24 1615 0 c909 0 1610 -4 1604 -9z m174 -1597 l-3 -485 -562 482 c-310 265
-563 485 -563 489 0 4 253 224 563 489 l562 482 3 -485 c1 -267 1 -705 0 -972z
m-666 -204 l495 -425 -803 -3 c-442 -1 -1167 -1 -1611 0 l-807 3 557 478 c307
263 564 480 572 483 9 4 69 -42 155 -117 78 -68 153 -131 168 -141 70 -47 201
-54 284 -15 31 14 115 78 202 155 l150 130 72 -61 c39 -34 294 -253 566 -487z"/>
<path d="M589 2891 c-48 -49 -34 -142 26 -169 18 -9 123 -12 365 -12 l340 0
32 29 c28 25 33 36 33 76 0 40 -5 51 -33 76 l-32 29 -351 0 -351 0 -29 -29z"/>
<path d="M291 2384 c-36 -30 -49 -81 -31 -124 26 -62 10 -60 559 -60 l501 0
32 29 c28 25 33 36 33 76 0 40 -5 51 -33 76 l-32 29 -499 0 -499 0 -31 -26z"/>
</g>
</svg>
